<svg version="1.1" preserveAspectRatio="none" xmlns="http://www.w3.org/2000/svg" width="500" height="500" viewBox="0 0 500 500"><rect width="100%" height="100%" fill="#FFFFFF" fill-opacity="1"/><svg viewBox="107.2898 133.9962 454.148 40" width="333" height="29.329645842324528" x="83.5px" y="235.3352px" xmlns="http://www.w3.org/2000/svg" xmlns:xlink="http://www.w3.org/1999/xlink" preserveAspectRatio="none"><defs></defs><style>.companyName {fill:#182145;fill-opacity:1;}.icon1 {fill:#182145;fill-opacity:1;}.icon2 {fill:#E35B34;fill-opacity:1;}.icon3 {fill:#E3D454;fill-opacity:1;}.icon3-str {stroke:#E3D454;stroke-opacity:1;}</style><g opacity="1" transform="rotate(0 107.2898 133.9962)">
<svg width="45.1613" height="40" x="107.2898" y="133.9962" version="1.1" preserveAspectRatio="none" viewBox="30 38 140 124">
  <g transform="matrix(1 0 0 1 0 0)"><g><path d="M166.819 116.45c0-15.806-2.115-34.865-29.918-28.665-16.067 3.583-33.734 12.859-33.734 28.665h-6.334c0-15.806-17.667-25.082-33.734-28.665-27.803-6.2-29.918 12.859-29.918 28.665 0 6.985 2.624 13.391 6.972 18.369v23.129s29.903 4.992 48.99-9.658l10.816-8.944 11.134 8.944c19.087 14.65 48.672 9.658 48.672 9.658v-23.04c4.397-4.991 7.054-11.431 7.054-18.458z" data-color="1" class="icon1"></path><path d="M54.151 76.486c1.757 0 3.181-1.436 3.181-3.207V41.207c0-1.771-1.424-3.207-3.181-3.207-1.757 0-3.181 1.436-3.181 3.207v32.072c0 1.771 1.424 3.207 3.181 3.207z" data-color="2" class="icon2"></path><path d="M148.313 76.486c1.757 0 3.181-1.436 3.181-3.207V41.207c0-1.771-1.424-3.207-3.181-3.207-1.757 0-3.181 1.436-3.181 3.207v32.072c0 1.771 1.424 3.207 3.181 3.207z" data-color="2" class="icon2"></path><path d="M161.114 87.877c-5.719-4.629-13.863-5.685-24.9-3.223-17.37 3.874-35.909 14.143-36.214 31.37-.304-17.227-18.844-27.496-36.214-31.37-11.042-2.462-19.183-1.406-24.9 3.223C31.076 94.198 30 105.346 30 116.449c0 7.356 2.609 14.133 6.972 19.533v21.966a3.202 3.202 0 0 0 2.662 3.165c1.275.213 31.485 5.043 51.526-10.343l8.828-7.299 9.178 7.371C121.242 160.111 136.963 162 147.774 162c7.053 0 12.018-.804 12.517-.888a3.2 3.2 0 0 0 2.656-3.163v-21.867c4.412-5.416 7.053-12.23 7.053-19.632 0-11.104-1.076-22.252-8.886-28.573zM36.439 117.886c5.656 7.252 15.404 16.539 28.463 16.969l.107.001c1.709 0 3.12-1.368 3.177-3.102.057-1.77-1.32-3.252-3.076-3.311-15.663-.516-26.296-17.9-28.292-21.425.677-5.821 2.299-11.103 6.05-14.141 2.536-2.052 6.05-3.081 10.5-3.081 2.678 0 5.696.373 9.043 1.12 15.103 3.368 31.24 11.843 31.24 25.532 0 14.337-16.424 25.458-30.553 25.458-14.232.002-25.87-10.652-26.659-24.02zm120.145 37.23c-7.466.755-29.017 1.789-43.509-9.333l-11.134-8.944a3.158 3.158 0 0 0-3.999.029l-10.727 8.871c-14.556 11.171-36.362 10.133-43.881 9.373V142c5.519 3.969 12.362 6.322 19.764 6.322 17.288 0 36.596-13.418 36.901-31.443.304 18.025 19.613 31.443 36.901 31.443 7.367 0 14.178-2.332 19.683-6.267v13.061zm-19.683-13.208c-14.129 0-30.553-11.121-30.553-25.458 0-13.689 16.137-22.165 31.24-25.532 3.346-.747 6.364-1.12 9.043-1.12 4.45 0 7.965 1.029 10.5 3.081 3.507 2.84 5.154 7.642 5.907 13.013a3.262 3.262 0 0 0-.33.506c-.111.215-11.291 21.476-28.634 22.047-1.756.059-3.133 1.541-3.076 3.311.057 1.734 1.469 3.102 3.177 3.102l.107-.001c13.76-.454 23.845-10.74 29.34-18.118-.165 13.903-12.081 25.169-26.721 25.169z" data-color="2" class="icon2"></path></g></g>
</svg>
</g><g opacity="1" transform="rotate(0 172.4511 133.9962)">
<svg width="388.9867" height="40" x="172.4511" y="133.9962" version="1.1" preserveAspectRatio="none" viewBox="3.32 -28.48 281.6 28.96">
  <g transform="matrix(1 0 0 1 0 0)" class="companyName"><path id="id-D6z1nYkh10" d="M24.48-22.80L9.80-22.80L9.80-15.40L22.76-15.40L22.76-10.20L9.80-10.20L9.80 0L3.32 0L3.32-28L24.48-28L24.48-22.80Z M48.64 0L46.16-6L33.16-6L30.68 0L24.04 0L36.52-28L42.92-28L55.44 0L48.64 0ZM35.24-10.92L44.12-10.92L39.68-21.64L35.24-10.92Z M67.56 0.48Q64.24 0.48 61.14-0.42Q58.04-1.32 56.16-2.76L56.16-2.76L58.36-7.64Q60.16-6.32 62.64-5.52Q65.12-4.72 67.60-4.72L67.60-4.72Q70.36-4.72 71.68-5.54Q73-6.36 73-7.72L73-7.72Q73-8.72 72.22-9.38Q71.44-10.04 70.22-10.44Q69-10.84 66.92-11.32L66.92-11.32Q63.72-12.08 61.68-12.84Q59.64-13.60 58.18-15.28Q56.72-16.96 56.72-19.76L56.72-19.76Q56.72-22.20 58.04-24.18Q59.36-26.16 62.02-27.32Q64.68-28.48 68.52-28.48L68.52-28.48Q71.20-28.48 73.76-27.84Q76.32-27.20 78.24-26L78.24-26L76.24-21.08Q72.36-23.28 68.48-23.28L68.48-23.28Q65.76-23.28 64.46-22.40Q63.16-21.52 63.16-20.08L63.16-20.08Q63.16-18.64 64.66-17.94Q66.16-17.24 69.24-16.56L69.24-16.56Q72.44-15.80 74.48-15.04Q76.52-14.28 77.98-12.64Q79.44-11 79.44-8.20L79.44-8.20Q79.44-5.80 78.10-3.82Q76.76-1.84 74.08-0.68Q71.40 0.48 67.56 0.48L67.56 0.48Z M103.08-28L109.56-28L109.56 0L103.08 0L103.08-11.48L90.36-11.48L90.36 0L83.88 0L83.88-28L90.36-28L90.36-16.96L103.08-16.96L103.08-28Z M116.20 0L116.20-28L122.68-28L122.68 0L116.20 0Z M142.88 0.48Q138.52 0.48 135.02-1.40Q131.52-3.28 129.54-6.58Q127.56-9.88 127.56-14L127.56-14Q127.56-18.12 129.54-21.42Q131.52-24.72 135.02-26.60Q138.52-28.48 142.88-28.48L142.88-28.48Q147.24-28.48 150.72-26.60Q154.20-24.72 156.20-21.42Q158.20-18.12 158.20-14L158.20-14Q158.20-9.88 156.20-6.58Q154.20-3.28 150.72-1.40Q147.24 0.48 142.88 0.48L142.88 0.48ZM142.88-5.04Q145.36-5.04 147.36-6.18Q149.36-7.32 150.50-9.36Q151.64-11.40 151.64-14L151.64-14Q151.64-16.60 150.50-18.64Q149.36-20.68 147.36-21.82Q145.36-22.96 142.88-22.96L142.88-22.96Q140.40-22.96 138.40-21.82Q136.40-20.68 135.26-18.64Q134.12-16.60 134.12-14L134.12-14Q134.12-11.40 135.26-9.36Q136.40-7.32 138.40-6.18Q140.40-5.04 142.88-5.04L142.88-5.04Z M182.36-28L188.76-28L188.76 0L183.44 0L169.48-17L169.48 0L163.08 0L163.08-28L168.44-28L182.36-11L182.36-28Z M214.60-28L221.08-28L221.08 0L214.60 0L214.60-11.48L201.88-11.48L201.88 0L195.40 0L195.40-28L201.88-28L201.88-16.96L214.60-16.96L214.60-28Z M240.16 0.48Q234.16 0.48 230.82-2.84Q227.48-6.16 227.48-12.32L227.48-12.32L227.48-28L233.96-28L233.96-12.56Q233.96-5.04 240.20-5.04L240.20-5.04Q243.24-5.04 244.84-6.86Q246.44-8.68 246.44-12.56L246.44-12.56L246.44-28L252.84-28L252.84-12.32Q252.84-6.16 249.50-2.84Q246.16 0.48 240.16 0.48L240.16 0.48Z M279.80-14.56Q282.20-13.80 283.56-12.02Q284.92-10.24 284.92-7.64L284.92-7.64Q284.92-3.96 282.06-1.98Q279.20 0 273.72 0L273.72 0L259.24 0L259.24-28L272.92-28Q278.04-28 280.78-26.04Q283.52-24.08 283.52-20.72L283.52-20.72Q283.52-18.68 282.54-17.08Q281.56-15.48 279.80-14.56L279.80-14.56ZM272.12-23.12L265.68-23.12L265.68-16.52L272.12-16.52Q274.52-16.52 275.76-17.36Q277-18.20 277-19.84L277-19.84Q277-21.48 275.76-22.30Q274.52-23.12 272.12-23.12L272.12-23.12ZM273.24-4.88Q275.80-4.88 277.10-5.72Q278.40-6.56 278.40-8.32L278.40-8.32Q278.40-11.80 273.24-11.80L273.24-11.80L265.68-11.80L265.68-4.88L273.24-4.88Z"/></g>
</svg>
</g></svg></svg>